<?xml version="1.0" standalone="no"?>
<!DOCTYPE svg PUBLIC "-//W3C//DTD SVG 20010904//EN"
 "http://www.w3.org/TR/2001/REC-SVG-20010904/DTD/svg10.dtd">
<svg version="1.0" xmlns="http://www.w3.org/2000/svg"
 width="500.000000pt" height="500.000000pt" viewBox="0 0 500.000000 500.000000"
 preserveAspectRatio="xMidYMid meet">

<g transform="translate(0.000000,500.000000) scale(0.100000,-0.100000)"
fill="#000000" stroke="none">
<path d="M2330 3979 c-298 -35 -608 -181 -829 -393 -79 -76 -152 -166 -145
-178 4 -6 2 -8 -4 -4 -13 8 -56 -50 -47 -64 4 -6 1 -9 -6 -8 -6 2 -14 -3 -17
-11 -3 -9 0 -11 8 -6 9 5 11 4 6 -4 -4 -6 -11 -9 -16 -6 -12 8 -33 -33 -24
-47 4 -7 3 -8 -4 -4 -24 15 -134 -240 -173 -399 -19 -79 -26 -152 -8 -90 6 24
7 20 3 -15 -3 -25 -9 -142 -14 -260 -9 -243 -3 -291 55 -466 90 -273 268 -526
491 -700 45 -35 84 -64 86 -64 2 0 4 11 4 25 0 14 -5 24 -10 21 -6 -2 -9 -10
-8 -17 2 -8 0 -10 -5 -6 -4 5 -8 14 -8 20 0 7 -8 11 -18 11 -9 -1 -14 2 -11 7
3 5 0 8 -6 7 -18 -4 -21 29 -4 43 10 8 11 16 5 23 -7 9 -3 12 14 12 l25 0 -21
-22 c-13 -14 -17 -24 -10 -29 6 -3 9 -11 6 -16 -4 -5 -2 -9 4 -9 11 0 26 20
26 34 0 5 8 10 19 12 16 2 16 0 -4 -21 -14 -15 -18 -25 -10 -30 12 -7 42 13
36 24 -3 4 6 7 19 7 13 0 21 -4 19 -8 -3 -5 -9 -6 -13 -3 -5 2 -16 -4 -25 -14
-24 -27 -1 -38 27 -14 22 18 22 18 6 -2 -9 -11 -15 -32 -14 -47 1 -15 -2 -25
-6 -22 -4 2 -6 14 -4 25 2 12 -1 19 -7 17 -6 -2 -12 -12 -14 -21 -3 -25 124
-96 290 -163 65 -26 99 -32 51 -8 -32 15 -31 15 45 -1 22 -5 22 -4 5 4 -32 15
-5 12 91 -10 67 -15 133 -21 264 -24 l175 -3 -175 9 c-96 4 -191 13 -210 18
-34 10 -34 10 10 6 145 -16 302 -16 420 -1 128 17 305 54 297 63 -3 2 -31 -3
-63 -11 -106 -27 -246 -46 -384 -50 l-135 -5 115 9 c63 5 162 17 220 25 109
17 274 55 267 61 -2 3 -42 -5 -89 -16 -118 -28 -263 -48 -388 -53 -64 -2 -87
-1 -60 3 29 5 7 7 -65 5 -97 -3 -103 -2 -50 6 33 5 112 7 175 5 133 -5 113 1
-45 13 l-110 8 155 0 c130 -1 176 4 285 26 181 37 350 88 333 99 -9 6 -5 7 11
3 15 -5 21 -3 17 3 -4 6 3 8 16 5 17 -3 19 -2 9 5 -11 8 -9 11 8 17 11 3 21
10 21 15 0 5 7 6 17 3 12 -5 14 -3 8 7 -5 8 -4 11 3 6 6 -4 34 5 61 19 28 13
52 21 55 16 8 -13 -4 -20 -22 -14 -10 4 -13 2 -8 -5 5 -8 1 -10 -10 -5 -12 4
-15 3 -10 -5 5 -8 1 -10 -11 -5 -16 6 -16 4 2 -18 l20 -24 -21 18 c-11 9 -24
17 -29 17 -4 0 -1 -8 6 -17 11 -15 11 -16 -1 -5 -21 18 -34 15 -19 -5 11 -15
11 -16 -1 -5 -8 6 -21 12 -29 12 -11 0 -10 -4 5 -15 10 -8 15 -15 10 -15 -5 0
-3 -7 4 -15 10 -12 9 -16 -4 -21 -9 -3 -13 -10 -10 -15 3 -5 -3 -6 -12 -2 -12
4 -15 3 -10 -5 5 -8 1 -10 -10 -5 -12 4 -15 3 -10 -5 5 -8 1 -10 -10 -5 -12 4
-15 3 -10 -5 5 -8 1 -10 -10 -5 -12 4 -15 3 -10 -5 5 -8 1 -10 -11 -6 -17 5
-17 5 0 -9 15 -13 16 -15 2 -21 -8 -3 -22 -2 -32 1 -11 4 -14 3 -9 -5 5 -8 1
-10 -10 -5 -11 4 -15 3 -11 -4 5 -7 0 -9 -14 -6 -16 5 -18 8 -7 15 8 6 5 7
-12 2 -49 -14 -125 -43 -114 -43 6 -1 32 6 58 15 26 9 50 13 53 10 4 -3 0 -6
-8 -6 -11 0 -11 -2 1 -10 11 -7 8 -9 -15 -8 -16 1 -73 -10 -125 -25 -230 -62
-463 -65 -750 -11 -23 4 -23 3 -5 -6 16 -8 12 -9 -20 -5 -33 4 -36 3 -17 -5
32 -13 214 -50 244 -49 32 1 17 5 -95 24 -54 9 -96 19 -93 22 2 3 46 -2 98
-10 204 -34 382 -29 571 14 51 12 103 23 117 25 l25 4 -25 -11 c-14 -6 -70
-22 -125 -35 -57 -14 -79 -22 -50 -18 74 9 208 50 313 96 363 159 702 545 822
938 52 169 65 258 64 450 -1 246 -38 414 -138 625 -269 568 -874 905 -1496
834z m510 -47 c278 -72 484 -188 680 -382 197 -195 322 -412 390 -674 83 -322
52 -653 -85 -926 -50 -99 -87 -143 -156 -188 -35 -23 -71 -48 -79 -54 -8 -7
-18 -12 -22 -10 -5 1 -8 -3 -8 -9 0 -5 -4 -7 -10 -4 -5 3 -10 1 -10 -5 0 -6
-13 -16 -30 -21 -16 -6 -29 -14 -29 -17 3 -22 -4 -31 -32 -41 -45 -16 -61 -12
-19 4 53 20 23 17 -45 -5 -33 -10 -51 -19 -40 -20 11 0 31 -7 44 -14 22 -12
20 -13 -25 -11 -64 3 -101 -4 -82 -17 8 -6 1 -7 -22 -4 -29 5 -31 4 -12 -4 15
-6 38 -6 65 0 23 5 43 7 46 4 2 -2 -1 -4 -8 -4 -7 0 -9 -5 -5 -11 5 -9 -1 -10
-22 -5 -17 4 -24 3 -16 -2 9 -6 0 -12 -29 -21 -22 -7 -44 -10 -47 -7 -3 3 3 6
13 6 10 0 16 2 13 5 -3 4 -18 3 -33 -1 l-28 -7 29 -13 29 -14 -28 5 c-16 3
-26 2 -23 -3 3 -5 -29 -19 -70 -31 -42 -12 -74 -24 -71 -27 3 -3 22 -1 43 5
21 6 49 8 63 5 20 -4 23 -3 11 5 -17 12 -4 13 24 2 14 -5 -3 -13 -61 -29 -75
-21 -83 -21 -131 -7 -29 9 -52 20 -52 24 0 5 23 1 50 -10 28 -10 56 -19 63
-18 7 0 6 3 -3 6 -85 33 -101 43 -88 57 7 8 17 11 22 8 6 -3 19 -6 30 -7 12
-1 35 -5 51 -8 l30 -7 -30 11 c-46 18 -57 29 -44 45 6 7 17 10 24 7 9 -3 19 5
26 21 10 20 15 23 30 16 23 -13 32 -13 24 0 -8 13 -7 13 49 -6 26 -9 49 -14
52 -11 3 3 -8 8 -25 12 -17 4 -29 10 -26 15 3 4 -5 6 -17 3 -19 -4 -20 -3 -8
6 12 9 8 10 -15 5 -29 -6 -30 -6 -10 11 19 17 19 17 -5 3 -171 -99 -298 -154
-428 -188 -44 -11 -83 -20 -86 -20 -3 0 -6 30 -6 68 l0 67 53 13 c143 33 283
138 334 249 54 117 39 273 -34 353 -44 49 -150 103 -263 134 l-85 23 -3 127
c-3 140 -1 143 59 104 20 -14 44 -44 59 -75 l25 -53 126 0 126 0 -9 58 c-12
77 -47 151 -99 207 -54 58 -109 91 -213 126 l-81 27 -3 76 -3 76 -119 0 -120
0 0 -78 0 -79 -39 -12 c-22 -6 -80 -32 -130 -56 -163 -82 -229 -184 -219 -339
12 -170 110 -270 319 -321 l69 -17 0 -139 c0 -76 -2 -139 -5 -139 -4 0 -19 7
-34 15 -41 21 -78 68 -98 125 l-18 50 -128 0 -129 0 7 -42 c31 -182 139 -308
330 -385 l80 -32 3 -67 3 -67 -46 6 c-63 9 -150 52 -195 97 -23 23 -46 61 -59
96 -29 82 -53 127 -71 131 -10 3 -8 -1 4 -11 23 -18 15 -21 -17 -5 -21 10 -21
9 2 -10 15 -14 18 -21 9 -21 -8 0 -18 3 -24 8 -5 4 1 -3 13 -16 24 -24 30 -38
13 -27 -6 3 -7 -1 -4 -9 3 -9 11 -13 17 -9 6 3 7 1 3 -6 -4 -6 5 -28 22 -49
16 -20 27 -43 24 -51 -2 -8 0 -11 5 -8 6 4 18 -2 28 -13 10 -11 15 -20 12 -20
-4 0 12 -17 35 -38 23 -20 45 -36 50 -34 4 1 7 -1 7 -5 -3 -20 2 -24 16 -13
13 11 14 10 10 -2 -3 -8 2 -21 11 -29 15 -12 17 -12 9 0 -5 10 -4 12 4 7 6 -4
19 -2 27 5 12 10 13 9 8 -6 -6 -14 -4 -16 6 -10 8 5 11 4 6 -3 -4 -6 -14 -9
-24 -6 -14 5 -13 3 3 -10 11 -9 25 -14 32 -11 7 3 21 8 31 11 14 5 15 4 2 -6
-12 -9 -11 -10 6 -6 15 5 21 2 21 -9 0 -9 -6 -14 -14 -10 -7 3 -20 8 -28 11
-8 3 -15 1 -15 -5 0 -33 -196 1 -303 53 -40 19 -98 44 -129 56 -31 11 -62 28
-69 36 -7 8 -20 19 -30 25 -15 8 -18 6 -13 -8 3 -10 -5 -1 -17 20 -13 20 -27
37 -32 37 -5 0 -2 -11 7 -25 21 -32 20 -46 -2 -18 -9 13 -29 24 -44 25 -15 1
-26 7 -25 12 1 6 -5 10 -13 11 -8 0 -15 7 -15 15 0 8 -5 15 -12 15 -18 0 -26
12 -12 21 8 5 10 3 4 -6 -5 -9 -4 -11 4 -6 9 6 9 11 -1 23 -13 17 -13 20 4 41
6 6 7 12 3 12 -4 0 -1 8 6 18 7 9 1 6 -13 -7 -15 -13 -25 -27 -23 -32 7 -11
-13 -22 -25 -14 -8 5 -7 11 1 21 6 8 8 14 4 14 -4 0 -2 7 5 15 7 8 17 12 23 8
6 -3 7 -1 3 6 -6 9 -11 9 -23 -1 -21 -17 -51 -20 -59 -6 -4 6 -3 8 3 5 6 -4
18 2 28 13 10 11 21 18 25 15 4 -2 7 2 7 10 0 10 -4 12 -12 5 -7 -5 -15 -6
-19 -2 -4 4 -6 1 -4 -7 2 -8 -7 -15 -22 -17 l-24 -5 29 33 c17 18 20 24 8 14
-13 -11 -23 -15 -23 -11 0 5 -11 -2 -25 -15 -16 -15 -25 -19 -25 -10 0 9 -9 5
-25 -10 -14 -13 -25 -28 -25 -33 0 -6 11 0 24 12 18 17 26 19 31 10 6 -8 4
-10 -5 -4 -9 6 -11 4 -6 -4 6 -9 13 -8 27 5 10 9 19 12 19 7 0 -17 -28 -35
-41 -27 -8 5 -9 3 -4 -6 6 -9 4 -11 -5 -5 -8 5 -11 4 -6 -3 4 -6 14 -8 23 -5
10 4 14 2 10 -4 -4 -6 1 -17 11 -24 16 -13 16 -13 2 5 -12 16 -12 18 -1 11 10
-6 12 -4 6 5 -6 9 -4 11 5 5 8 -5 11 -4 7 1 -3 6 3 10 13 11 11 1 22 -2 25 -8
3 -5 0 -6 -8 -3 -8 3 -18 0 -23 -7 -5 -9 -2 -10 9 -6 9 3 19 1 23 -5 4 -6 3
-8 -3 -5 -5 3 -10 0 -10 -8 0 -10 4 -12 12 -5 9 7 16 6 25 -5 7 -8 9 -15 4
-15 -4 0 5 -13 20 -29 15 -16 28 -33 27 -38 -1 -4 3 -8 8 -8 6 0 16 -7 23 -15
11 -12 11 -12 -6 0 -18 14 -19 13 -13 -2 7 -20 -8 -34 -18 -18 -5 8 -11 7 -21
-1 -8 -6 -14 -8 -14 -5 0 4 -5 4 -10 1 -8 -5 -7 -12 2 -22 7 -8 13 -26 14 -39
1 -23 0 -23 -18 -8 -10 10 -16 19 -13 22 3 3 0 11 -6 19 -6 7 -8 13 -4 13 4 0
1 8 -6 18 -13 15 -12 16 3 4 27 -21 29 3 3 28 -14 13 -25 20 -25 15 0 -5 -12
3 -27 17 -16 14 -36 24 -45 23 -10 -2 -20 1 -24 6 -3 5 -9 7 -13 4 -5 -2 -18
6 -30 19 l-22 23 41 -2 c26 -1 39 2 37 9 -2 6 -21 11 -43 11 -47 0 -65 10 -57
32 4 10 2 14 -4 10 -6 -4 -16 -1 -22 6 -8 11 -2 13 31 13 23 -1 43 4 45 10 2
7 -15 10 -47 9 -28 -1 -53 2 -56 7 -3 5 0 7 7 6 6 -2 13 2 16 9 3 8 -3 11 -16
8 -11 -2 -23 0 -25 4 -3 4 14 7 36 7 23 -1 43 4 45 10 2 7 -14 10 -46 9 -40
-1 -48 1 -43 13 3 10 1 13 -6 8 -6 -3 -16 3 -22 14 -8 15 -8 20 1 18 6 -2 14
3 17 11 3 8 0 11 -7 7 -7 -4 -9 -1 -5 8 4 11 0 14 -15 11 -15 -3 -18 0 -14 12
4 11 2 14 -5 9 -7 -4 -5 8 5 29 16 34 18 34 28 15 10 -19 13 -15 36 37 31 73
34 84 15 53 -10 -16 -16 -19 -16 -10 0 9 -6 5 -15 -10 -16 -28 -20 -54 -5 -30
5 8 10 11 10 5 0 -5 -4 -16 -9 -24 -7 -11 -10 -8 -16 9 l-7 23 -14 -24 c-8
-15 -13 -18 -14 -9 0 13 -1 13 -10 0 -9 -13 -10 -13 -10 0 0 12 -2 12 -9 2
-16 -26 -21 17 -6 51 l14 32 -5 -30 c-3 -24 -3 -26 5 -10 l10 20 1 -20 1 -20
9 20 9 20 1 -20 1 -20 9 20 9 20 1 -20 c0 -15 5 -11 15 14 19 42 19 54 0 21
-9 -15 -14 -19 -15 -10 0 12 -2 13 -9 1 -16 -24 -35 54 -22 91 13 38 13 61 0
33 -7 -15 -8 -10 -4 20 3 31 2 35 -5 20 -8 -15 -9 -9 -5 25 l4 45 -12 -45 -13
-45 -12 60 c-22 113 -32 230 -30 340 l2 110 7 -125 c6 -121 6 -119 5 45 -1
100 1 151 5 125 4 -25 8 -95 8 -156 1 -143 12 -249 22 -214 7 24 7 24 9 -5 1
-26 3 -27 10 -10 6 13 7 3 4 -30 -4 -38 -3 -46 6 -35 8 12 10 6 5 -25 l-5 -40
15 40 c14 38 14 32 1 -45 l-6 -35 14 30 c8 17 15 23 15 15 1 -13 2 -13 11 0
14 21 2 -41 -22 -109 -20 -61 -22 -73 -8 -51 9 13 10 13 10 0 1 -13 2 -13 9 0
5 8 12 26 15 40 6 19 5 21 -3 10 -10 -13 -11 -13 -10 0 0 22 27 78 28 60 1
-12 3 -12 11 2 6 10 19 15 30 13 13 -2 20 2 20 11 0 8 -4 12 -10 9 -6 -4 -7 1
-3 11 4 11 8 13 11 6 2 -7 8 -9 13 -6 6 3 7 -5 3 -22 -6 -21 -4 -25 7 -19 8 5
11 4 6 -1 -12 -12 -30 -12 -39 1 -5 6 -8 4 -8 -5 0 -13 -2 -13 -9 -1 -7 11
-12 3 -21 -28 -6 -23 -13 -50 -16 -59 -2 -9 4 1 14 23 14 30 24 39 45 40 14 1
24 -2 21 -6 -2 -4 -13 -6 -24 -4 -11 2 -20 0 -20 -6 0 -8 14 -13 31 -11 4 1 4
-9 1 -21 -5 -19 -3 -20 10 -10 8 7 18 10 21 6 4 -3 7 1 7 11 0 10 -5 14 -12
10 -7 -4 -8 -3 -4 5 4 6 12 9 17 6 5 -4 9 -2 9 4 0 5 -6 11 -12 14 -7 3 -3 4
8 4 19 -1 21 -5 13 -25 -12 -31 -11 -35 3 -26 6 4 8 3 4 -4 -3 -6 -15 -9 -25
-7 -18 3 -38 -22 -26 -33 3 -3 5 0 5 6 0 6 9 10 19 9 12 -1 17 -7 14 -17 -3
-8 5 -4 16 10 16 19 20 20 14 6 -5 -14 -3 -17 7 -11 9 5 11 4 6 -4 -4 -6 -12
-9 -17 -6 -5 4 -9 1 -9 -4 0 -6 5 -11 10 -11 7 0 7 -7 0 -22 -10 -21 -10 -22
4 -5 13 17 16 18 40 2 14 -9 31 -13 37 -9 8 5 9 3 4 -6 -6 -10 -4 -12 9 -7 11
5 15 3 10 -5 -5 -8 -2 -9 10 -5 9 4 15 3 12 -1 -2 -4 17 -16 42 -26 26 -11 56
-26 67 -35 19 -15 19 -15 5 3 -14 18 -14 19 10 6 14 -7 33 -19 43 -28 9 -8 17
-12 17 -8 0 4 14 -3 32 -16 18 -12 39 -23 47 -25 9 -1 17 -7 19 -12 2 -6 8
-11 13 -11 6 0 22 -12 36 -27 14 -16 20 -20 13 -10 -7 9 -10 21 -6 24 4 4 10
2 14 -4 4 -7 20 -10 35 -9 26 3 31 -3 30 -40 0 -12 34 -7 43 7 8 14 -86 76
-174 114 -185 80 -299 173 -352 287 -94 201 -140 623 -97 880 32 187 104 366
202 504 114 159 312 315 516 406 165 73 192 78 424 74 183 -3 210 -6 315 -34z
m-1544 -694 c5 -7 3 -8 -6 -3 -10 6 -12 4 -7 -9 5 -11 3 -15 -5 -10 -8 5 -9 2
-5 -10 5 -11 3 -15 -5 -10 -8 5 -9 2 -5 -10 5 -11 3 -15 -5 -10 -8 5 -9 2 -5
-10 4 -11 3 -15 -4 -10 -7 4 -9 0 -5 -12 3 -11 1 -26 -5 -34 -8 -11 -9 -9 -4
10 5 19 4 21 -4 10 -8 -12 -11 -12 -17 4 -6 17 -8 16 -20 -5 -26 -47 -13 -7
16 51 27 54 48 82 34 46 -10 -25 13 -26 24 -1 13 28 18 30 28 13z m-74 -143
c1 -11 -10 -57 -25 -102 -48 -149 -69 -275 -77 -468 l-7 -180 -3 155 -4 155
-4 -115 c-2 -63 0 -153 4 -200 8 -79 9 -82 15 -40 5 37 6 39 7 13 1 -18 12
-79 24 -135 17 -80 24 -97 29 -78 4 14 8 18 8 10 1 -8 4 -26 6 -40 5 -22 4
-22 -4 -5 -16 34 -13 -7 4 -55 8 -24 13 -45 11 -48 -3 -2 -8 8 -12 23 l-7 27
-16 -39 -17 -38 -11 32 c-7 17 -9 42 -6 55 4 18 3 20 -6 8 -8 -12 -10 -7 -6
20 4 24 3 29 -3 16 -16 -36 -22 20 -9 83 l11 56 12 -45 c16 -61 16 -29 -1 45
-12 53 -14 56 -15 25 l-3 -35 -7 30 c-7 25 -7 24 -4 -11 2 -22 0 -53 -4 -69
-7 -26 -9 -25 -20 24 -7 29 -14 76 -16 104 -2 36 -2 41 3 17 3 -19 6 55 6 165
0 293 8 395 40 494 19 60 29 80 36 70 7 -12 9 -12 9 1 1 9 6 5 16 -10 l15 -25
-7 25 c-9 36 -23 60 -24 41 0 -8 -2 -12 -5 -9 -3 3 -2 13 1 23 6 15 10 12 26
-16 18 -32 19 -27 2 15 -6 15 -4 17 6 11 10 -6 12 -4 7 9 -4 11 -3 15 4 10 8
-4 9 1 4 17 -5 17 -4 21 4 14 6 -6 12 -19 13 -30z m49 8 c-12 -20 -14 -14 -5
12 4 9 9 14 11 11 3 -2 0 -13 -6 -23z m-30 -84 c-5 -13 -10 -19 -10 -12 -1 15
10 45 15 40 3 -2 0 -15 -5 -28z m-27 -95 c-5 -19 -9 -22 -15 -12 -5 7 -9 20
-9 28 0 13 1 13 11 0 8 -11 9 -8 5 15 -5 24 -4 26 4 13 6 -10 8 -29 4 -44z
m-15 -59 l0 -20 -9 20 c-5 11 -9 27 -9 35 -1 13 0 13 9 0 5 -8 9 -24 9 -35z
m-11 -50 c0 -16 -2 -15 -8 5 -11 34 -11 60 0 35 5 -11 8 -29 8 -40z m-10 -55
c0 -22 -1 -22 -8 5 -4 17 -8 39 -8 50 0 16 2 15 8 -5 4 -14 8 -36 8 -50z m-9
-64 c2 -45 -6 -27 -12 29 -4 34 -3 42 3 25 4 -14 8 -38 9 -54z m131 52 c0 -19
-2 -20 -10 -8 -13 19 -13 30 0 30 6 0 10 -10 10 -22z m-83 -90 c-2 -13 -4 -5
-4 17 -1 22 1 32 4 23 2 -10 2 -28 0 -40z m10 -115 c-2 -16 -4 -5 -4 22 0 28
2 40 4 28 2 -13 2 -35 0 -50z m63 27 c0 -11 -4 -20 -10 -20 -5 0 -10 9 -10 20
0 11 5 20 10 20 6 0 10 -9 10 -20z m-30 -57 c0 -10 -5 -25 -10 -33 -7 -11 -10
-7 -10 18 0 17 5 32 10 32 6 0 10 -8 10 -17z m47 -15 c-3 -7 -5 -2 -5 12 0 14
2 19 5 13 2 -7 2 -19 0 -25z m1063 -83 l0 -105 -26 0 c-42 0 -83 31 -96 72 -9
31 -8 42 8 70 18 31 73 68 102 68 9 0 12 -28 12 -105z m-1097 34 c-5 -5 -7 7
-4 29 5 34 6 35 9 8 2 -16 0 -32 -5 -37z m-71 9 c-6 -6 -7 0 -4 19 5 21 7 23
10 9 2 -10 0 -22 -6 -28z m21 -39 c-6 -6 -7 3 -4 23 4 28 6 29 9 9 2 -13 0
-27 -5 -32z m17 -26 c-11 -17 -11 -17 -6 0 3 10 7 31 7 45 l2 27 4 -27 c2 -15
-1 -35 -7 -45z m100 57 c0 -5 -2 -10 -4 -10 -3 0 -8 5 -11 10 -3 6 -1 10 4 10
6 0 11 -4 11 -10z m-41 -27 c0 -25 -1 -25 -8 -8 -5 11 -7 23 -4 28 8 14 13 7
12 -20z m-122 -20 c-3 -10 -5 -4 -5 12 0 17 2 24 5 18 2 -7 2 -21 0 -30z m90
-25 c-3 -7 -5 -2 -5 12 0 14 2 19 5 13 2 -7 2 -19 0 -25z m58 23 c3 -5 1 -12
-5 -16 -5 -3 -10 1 -10 9 0 18 6 21 15 7z m-128 -33 c-3 -7 -5 -2 -5 12 0 14
2 19 5 13 2 -7 2 -19 0 -25z m20 -20 c-3 -7 -5 -2 -5 12 0 14 2 19 5 13 2 -7
2 -19 0 -25z m70 10 c-3 -8 -6 -5 -6 6 -1 11 2 17 5 13 3 -3 4 -12 1 -19z m66
2 c3 -11 1 -18 -4 -14 -5 3 -9 12 -9 20 0 20 7 17 13 -6z m-116 -27 c-3 -10
-5 -4 -5 12 0 17 2 24 5 18 2 -7 2 -21 0 -30z m77 12 c-4 -8 -8 -15 -10 -15
-2 0 -4 7 -4 15 0 8 4 15 10 15 5 0 7 -7 4 -15z m-57 -37 c-3 -7 -5 -2 -5 12
0 14 2 19 5 13 2 -7 2 -19 0 -25z m74 5 c-8 -15 -10 -15 -11 -2 0 17 10 32 18
25 2 -3 -1 -13 -7 -23z m-27 -18 c-4 -8 -8 -15 -10 -15 -2 0 -4 7 -4 15 0 8 4
15 10 15 5 0 7 -7 4 -15z m66 -10 c14 -19 14 -19 -2 -6 -10 7 -18 18 -18 24 0
6 1 8 3 6 1 -2 9 -13 17 -24z m-143 -17 c-3 -8 -6 -5 -6 6 -1 11 2 17 5 13 3
-3 4 -12 1 -19z m97 7 c-4 -8 -8 -15 -10 -15 -2 0 -4 7 -4 15 0 8 4 15 10 15
5 0 7 -7 4 -15z m-77 -17 c-3 -8 -6 -5 -6 6 -1 11 2 17 5 13 3 -3 4 -12 1 -19z
m103 12 c0 -5 -5 -10 -11 -10 -5 0 -7 5 -4 10 3 6 8 10 11 10 2 0 4 -4 4 -10z
m-83 -22 c-3 -8 -6 -5 -6 6 -1 11 2 17 5 13 3 -3 4 -12 1 -19z m42 3 c9 -6 10
-11 2 -15 -6 -4 -11 -1 -11 6 0 9 -3 9 -10 -2 -8 -13 -10 -12 -10 3 0 19 8 21
29 8z m42 -26 c5 4 9 1 9 -4 0 -13 -3 -13 -24 -5 -9 3 -12 12 -8 22 6 16 7 15
10 -1 2 -9 8 -15 13 -12z m-21 -27 c0 -5 5 -6 10 -3 6 3 10 1 10 -5 0 -7 -6
-10 -12 -7 -7 2 -18 -8 -25 -22 -11 -25 -11 -25 -6 9 3 27 2 31 -6 20 -6 -8
-11 -10 -11 -4 0 6 2 13 5 16 8 8 35 5 35 -4z m67 -65 c4 -10 11 -21 17 -25 6
-4 1 -6 -11 -6 -13 2 -19 7 -15 16 3 8 -1 18 -9 23 -10 6 -11 9 -1 9 7 0 16
-8 19 -17z m-150 -115 c-3 -8 -6 -5 -6 6 -1 11 2 17 5 13 3 -3 4 -12 1 -19z
m1469 -37 c23 -10 49 -29 58 -42 43 -62 -4 -146 -97 -174 -28 -8 -52 -15 -54
-15 -2 0 -3 56 -3 125 l0 125 28 0 c15 0 46 -9 68 -19z m-1196 -304 c0 -2 -10
-12 -22 -23 l-23 -19 19 23 c18 21 26 27 26 19z m6 -59 c4 -7 4 -10 -1 -6 -4
4 -15 2 -24 -5 -14 -11 -14 -10 -2 6 16 20 18 21 27 5z m1889 -38 l20 -9 -20
0 c-11 0 -27 4 -35 9 -13 9 -13 10 0 9 8 0 24 -4 35 -9z m-1808 -15 c0 -8 -4
-12 -9 -9 -5 3 -6 10 -3 15 9 13 12 11 12 -6z m1720 -21 c-3 -3 -12 -4 -19 -1
-8 3 -5 6 6 6 11 1 17 -2 13 -5z m-1877 -49 c0 4 7 2 15 -5 8 -7 15 -9 15 -5
0 4 7 2 15 -5 9 -7 13 -15 10 -18 -3 -3 2 -14 12 -24 9 -10 13 -18 8 -18 -4 0
-2 -7 5 -15 29 -35 0 -10 -55 47 -33 34 -52 56 -42 49 9 -8 17 -10 17 -6z
m1854 -19 c-10 -8 -21 -12 -24 -10 -5 6 21 24 34 24 6 0 1 -6 -10 -14z m-4
-36 c-8 -5 -19 -10 -25 -10 -5 0 -3 5 5 10 8 5 20 10 25 10 6 0 3 -5 -5 -10z
m-36 -19 c4 -5 -3 -7 -14 -4 -23 6 -26 13 -6 13 8 0 17 -4 20 -9z m-333 -14
c-6 -8 -8 -17 -4 -21 4 -4 0 -4 -10 0 -17 6 -17 7 0 20 23 17 28 18 14 1z m79
-33 l35 -14 -35 6 c-40 7 -76 24 -50 23 8 0 31 -7 50 -15z m171 9 c-10 -4 -10
-7 -1 -13 6 -4 -23 -17 -69 -30 -51 -15 -76 -27 -69 -32 7 -4 -3 -5 -22 -2
-21 3 -30 2 -23 -3 7 -5 -13 -8 -52 -8 -66 1 -77 5 -81 29 -1 8 7 12 25 10 14
-2 18 -1 9 2 -10 3 -18 9 -18 14 0 4 21 2 48 -7 45 -14 51 -13 147 15 91 27
141 39 106 25z m-255 -18 c18 -13 18 -14 -4 -8 -12 3 -25 9 -28 14 -8 14 10
11 32 -6z m254 -25 c-8 -5 -19 -10 -25 -10 -5 0 -3 5 5 10 8 5 20 10 25 10 6
0 3 -5 -5 -10z m-335 -10 c3 -5 2 -10 -4 -10 -5 0 -13 5 -16 10 -3 6 -2 10 4
10 5 0 13 -4 16 -10z m300 -10 c3 -6 -1 -7 -9 -4 -18 7 -21 14 -7 14 6 0 13
-4 16 -10z m-1362 -22 c-21 -24 -26 -51 -8 -44 9 3 12 -2 10 -15 -3 -13 0 -19
8 -16 7 3 11 9 10 14 -1 5 7 9 17 9 10 0 16 -5 13 -10 -4 -5 1 -7 11 -3 10 4
15 3 11 -3 -10 -17 11 -11 41 11 l29 21 -27 -25 c-15 -14 -23 -27 -17 -29 6
-2 -1 -9 -16 -16 -20 -9 -24 -9 -19 0 5 7 2 9 -9 5 -12 -4 -15 -1 -12 14 3 13
0 19 -8 16 -7 -3 -11 -10 -9 -16 1 -8 -7 -7 -26 3 -23 12 -28 21 -26 43 1 15
3 29 4 31 1 1 4 7 5 12 1 6 3 12 4 13 0 2 8 4 16 4 13 0 12 -3 -2 -19z m567
18 c0 -2 -7 -7 -16 -10 -8 -3 -12 -2 -9 4 6 10 25 14 25 6z m30 -6 c0 -5 -4
-10 -10 -10 -5 0 -10 5 -10 10 0 6 5 10 10 10 6 0 10 -4 10 -10z m94 -5 c-4
-10 0 -15 12 -15 9 0 15 -3 11 -6 -3 -3 -15 -3 -27 1 -17 5 -19 10 -9 21 15
18 20 18 13 -1z m106 6 c0 -9 -60 -24 -68 -17 -2 3 11 9 29 15 19 5 35 10 37
10 1 1 2 -3 2 -8z m43 2 c-7 -2 -19 -2 -25 0 -7 3 -2 5 12 5 14 0 19 -2 13 -5z
m207 -3 c13 -8 13 -10 -2 -10 -9 0 -20 5 -23 10 -8 13 5 13 25 0z m-1010 -3
c0 -2 -10 -12 -22 -23 l-23 -19 19 23 c18 21 26 27 26 19z m590 -29 c0 -19
-16 -5 -17 14 -2 18 0 20 7 8 5 -8 10 -18 10 -22z m-570 19 c0 -2 -10 -12 -22
-23 l-23 -19 19 23 c18 21 26 27 26 19z m920 -6 c0 -4 19 -13 43 -18 32 -8 36
-11 17 -13 l-25 -2 25 -9 c19 -7 14 -7 -19 -4 -45 6 -111 34 -79 35 9 0 20 -4
23 -10 3 -5 16 -10 28 -10 19 0 18 2 -8 16 -38 20 -42 24 -22 24 10 0 17 -4
17 -9z m65 -1 l20 -9 -20 0 c-11 0 -27 4 -35 9 -13 9 -13 10 0 9 8 0 24 -4 35
-9z m263 -4 c-7 -7 -19 -11 -27 -8 -9 3 -12 1 -7 -6 8 -14 5 -15 -20 -5 -14 5
-11 9 17 19 45 17 52 17 37 0z m-198 0 c0 -2 -9 -6 -20 -9 -11 -3 -18 -1 -14
4 5 9 34 13 34 5z m-1010 -10 c0 -2 -8 -10 -17 -17 -16 -13 -17 -12 -4 4 13
16 21 21 21 13z m800 -6 c0 -5 10 -11 23 -11 16 -1 17 -3 5 -6 -10 -2 -28 3
-40 11 -18 13 -19 16 -5 16 9 0 17 -4 17 -10z m250 6 c0 -2 -7 -7 -16 -10 -8
-3 -12 -2 -9 4 6 10 25 14 25 6z m-1030 -10 c0 -2 -8 -10 -17 -17 -16 -13 -17
-12 -4 4 13 16 21 21 21 13z m741 -14 c-7 -2 -18 1 -23 6 -8 8 -4 9 13 5 13
-4 18 -8 10 -11z m379 8 c8 -5 13 -10 10 -10 -3 0 -50 -11 -105 -25 -75 -19
-111 -24 -145 -18 -43 7 -44 7 -15 14 30 7 30 7 3 8 -15 0 -30 6 -34 13 -5 7
-3 8 5 3 7 -4 54 -8 104 -10 51 -1 83 1 72 5 -16 6 -15 8 11 13 17 3 42 4 55
1 19 -5 21 -4 9 5 -13 10 -13 11 0 11 8 0 22 -5 30 -10z m-143 -6 c-3 -3 -12
-4 -19 -1 -8 3 -5 6 6 6 11 1 17 -2 13 -5z m-927 -8 c0 -2 -12 -12 -27 -21
l-28 -18 19 21 c17 20 36 29 36 18z m26 -11 c-7 -18 5 -20 23 -2 11 10 12 9 6
-1 -4 -8 -21 -22 -37 -32 -29 -17 -29 -18 -9 -25 14 -4 37 2 67 19 51 29 58
31 49 16 -4 -6 -25 -18 -48 -27 -22 -9 -36 -18 -30 -20 6 -2 35 8 65 24 70 37
72 38 63 23 -4 -7 -31 -23 -59 -36 -36 -17 -42 -23 -21 -19 17 4 52 17 78 31
27 13 47 19 45 13 -2 -6 -31 -21 -63 -34 -54 -20 -57 -22 -33 -28 17 -5 67 3
130 19 88 22 120 26 223 23 66 -1 154 -2 195 0 41 1 71 -1 67 -5 -4 -4 -103
-8 -220 -9 -166 -2 -223 -6 -262 -19 -48 -15 -49 -16 -10 -10 22 3 67 7 100 9
l60 4 -64 -9 c-79 -11 -96 -18 -51 -20 35 -2 34 -2 -10 -11 -28 -6 -61 -6 -85
0 -22 5 -65 8 -95 6 -61 -3 -163 31 -138 46 10 7 10 9 -2 9 -8 1 2 10 23 21
41 22 46 39 5 19 -18 -9 -16 -6 7 14 35 30 39 31 31 11z m629 5 c13 -5 14 -9
5 -9 -8 0 -24 4 -35 9 -13 5 -14 9 -5 9 8 0 24 -4 35 -9z m-65 -10 c8 -5 11
-10 5 -10 -5 0 -17 5 -25 10 -8 5 -10 10 -5 10 6 0 17 -5 25 -10z m163 3 c-7
-2 -21 -2 -30 0 -10 3 -4 5 12 5 17 0 24 -2 18 -5z m-665 -18 c-2 -1 -14 -8
-28 -15 -25 -13 -25 -13 -6 8 10 12 23 19 28 16 5 -3 8 -7 6 -9z m422 -5 c24
-8 24 -8 -7 -9 -17 -1 -35 4 -38 9 -7 11 9 11 45 0z m135 0 c3 -5 2 -10 -4
-10 -5 0 -13 5 -16 10 -3 6 -2 10 4 10 5 0 13 -4 16 -10z m98 3 c-7 -2 -21 -2
-30 0 -10 3 -4 5 12 5 17 0 24 -2 18 -5z m-376 -9 c-3 -3 -12 -4 -19 -1 -8 3
-5 6 6 6 11 1 17 -2 13 -5z m-112 -30 c-38 -13 -74 -23 -79 -21 -13 4 103 45
129 45 11 0 -11 -10 -50 -24z m365 16 c0 -5 -2 -10 -4 -10 -3 0 -8 5 -11 10
-3 6 -1 10 4 10 6 0 11 -4 11 -10z m134 2 c2 -4 -13 -6 -35 -4 -21 2 -39 6
-39 8 0 7 69 4 74 -4z m63 2 c-3 -3 -12 -4 -19 -1 -8 3 -5 6 6 6 11 1 17 -2
13 -5z m-882 -32 c-3 -3 -11 0 -18 7 -9 10 -8 11 6 5 10 -3 15 -9 12 -12z
m1115 -52 c-8 -5 -22 -9 -30 -9 -10 0 -8 3 5 9 27 12 43 12 25 0z m-642 -7
c-16 -2 -40 -2 -55 0 -16 2 -3 4 27 4 30 0 43 -2 28 -4z"/>
<path d="M2439 3576 c-68 -46 -96 -150 -61 -229 32 -72 95 -100 170 -74 23 8
52 12 65 10 19 -4 33 6 68 45 42 47 46 49 78 40 28 -8 32 -12 26 -31 -19 -60
-18 -85 7 -101 16 -11 35 -14 55 -10 26 5 32 2 38 -15 9 -28 64 -69 103 -77
41 -8 86 10 103 42 14 26 9 50 -24 139 -19 50 -5 78 40 83 40 4 78 -39 62 -70
-6 -10 -17 -22 -25 -25 -20 -7 -17 -31 5 -38 26 -8 47 2 60 32 18 40 -12 92
-72 122 -52 26 -85 23 -117 -9 -33 -33 -34 -63 -4 -130 30 -67 25 -102 -17
-115 -51 -17 -105 70 -59 95 17 9 19 14 9 26 -17 21 -43 17 -67 -11 -22 -26
-52 -25 -52 2 0 8 23 64 51 124 28 60 49 116 47 126 -4 23 -56 35 -96 22 -22
-7 -46 -29 -74 -70 -34 -48 -47 -59 -70 -59 -22 0 -28 -5 -28 -21 0 -12 4 -18
11 -13 7 4 10 1 7 -7 -5 -16 -60 -48 -71 -42 -5 3 -14 -3 -22 -13 -19 -26 -95
-26 -124 0 -73 66 -25 266 61 254 18 -2 24 -10 26 -37 2 -18 -1 -38 -7 -44
-17 -17 -13 -27 12 -27 32 0 47 18 47 57 0 72 -88 99 -161 49z m425 -68 c-5
-19 -52 -118 -59 -126 -3 -4 -65 19 -65 25 0 6 48 71 74 101 11 12 28 22 38
22 15 0 18 -5 12 -22z"/>
<path d="M2163 3519 c-36 -11 -83 -61 -83 -90 0 -31 19 -59 40 -59 28 0 33 16
14 45 -15 23 -15 27 0 50 20 30 61 33 76 6 17 -34 11 -88 -20 -166 -36 -90
-40 -145 -11 -145 11 0 22 4 25 9 3 4 32 18 66 30 61 22 85 47 74 75 -6 16
-16 12 -132 -56 l-32 -20 10 27 c6 15 19 39 29 54 80 114 83 214 7 241 -16 5
-29 10 -30 9 -1 0 -15 -5 -33 -10z"/>
<path d="M1901 3345 c-43 -47 -55 -97 -29 -123 25 -25 78 -8 78 25 0 8 -7 13
-16 11 -26 -5 -40 26 -26 57 7 14 16 23 22 20 5 -3 41 -58 81 -121 40 -64 79
-118 86 -121 8 -3 21 1 30 9 13 13 5 31 -72 152 -48 75 -92 136 -99 136 -8 0
-32 -20 -55 -45z"/>
<path d="M3238 3259 c-21 -12 -24 -49 -6 -67 16 -16 28 -15 28 3 0 23 33 35
60 22 12 -7 23 -16 24 -22 0 -5 -60 -35 -134 -66 -135 -56 -156 -73 -130 -104
9 -11 21 -9 73 16 34 16 67 29 72 29 14 0 60 -73 49 -77 -5 -2 -29 -14 -54
-27 -37 -18 -46 -28 -48 -53 -2 -24 3 -36 24 -52 28 -22 69 -28 79 -11 4 6 -5
10 -20 10 -29 0 -44 25 -26 43 7 7 62 32 124 58 112 46 132 63 107 93 -9 12
-19 10 -59 -10 -85 -40 -97 -41 -121 -2 -11 18 -20 35 -20 38 0 3 29 18 65 34
44 19 65 34 65 46 0 9 -18 38 -41 64 -42 48 -73 57 -111 35z"/>
<path d="M1745 3170 c-24 -47 -18 -74 33 -141 31 -42 47 -73 47 -93 0 -32 21
-47 27 -19 3 14 8 11 21 -14 11 -20 15 -42 11 -58 -7 -29 18 -44 41 -25 23 19
18 43 -21 94 -35 46 -35 46 -17 76 21 35 20 35 58 10 39 -26 70 -25 89 2 19
27 20 48 4 83 -16 35 -25 31 -20 -10 6 -55 -21 -45 -128 45 -52 44 -102 80
-112 80 -10 0 -24 -13 -33 -30z m119 -104 c29 -24 29 -24 10 -50 -11 -14 -22
-26 -26 -26 -9 0 -71 77 -87 108 -7 13 -10 30 -7 39 6 15 9 13 110 -71z"/>
<path d="M1153 2320 c0 -25 2 -35 4 -22 2 12 2 32 0 45 -2 12 -4 2 -4 -23z"/>
<path d="M1162 2245 c0 -16 2 -22 5 -12 2 9 2 23 0 30 -3 6 -5 -1 -5 -18z"/>
<path d="M1176 2219 c-4 -23 -5 -44 -2 -46 2 -2 7 14 11 37 4 23 5 43 2 46 -2
3 -7 -14 -11 -37z"/>
<path d="M1236 2114 c-4 -14 -5 -28 -3 -31 3 -2 8 8 11 23 4 14 5 28 3 31 -3
2 -8 -8 -11 -23z"/>
<path d="M1286 2005 c-9 -26 -7 -32 5 -12 6 10 9 21 6 23 -2 3 -7 -2 -11 -11z"/>
<path d="M1326 1995 c-9 -26 -7 -32 5 -12 6 10 9 21 6 23 -2 3 -7 -2 -11 -11z"/>
<path d="M1365 1979 c-5 -15 -9 -18 -15 -9 -6 9 -10 6 -15 -10 -5 -14 -10 -18
-14 -11 -4 6 -19 -14 -36 -49 -27 -56 -30 -59 -40 -39 -11 19 -13 19 -18 4 -4
-9 -3 -24 3 -33 8 -14 10 -14 10 -2 0 8 8 2 16 -14 11 -20 13 -31 5 -39 -13
-13 -15 -30 -2 -22 6 3 15 -3 21 -12 9 -13 10 -14 7 -2 -3 9 1 16 8 16 7 0 11
-6 9 -12 -3 -6 2 -12 9 -12 8 0 15 10 15 22 0 18 -6 22 -29 20 -26 -2 -27 -1
-17 19 16 32 21 34 14 6 -5 -17 -4 -21 2 -11 8 11 11 11 16 0 3 -8 3 -4 1 8
-3 12 0 25 6 29 9 5 10 2 6 -12 -7 -18 -6 -18 7 -1 13 16 14 16 20 1 4 -9 4
-19 1 -22 -3 -3 -5 0 -5 7 0 7 -4 9 -10 6 -18 -11 -11 -24 11 -20 13 3 19 0
16 -8 -2 -7 0 -20 5 -29 5 -10 6 -18 4 -18 -3 0 -12 12 -19 27 l-14 27 0 -27
c0 -15 3 -24 8 -22 16 10 20 -15 6 -36 -10 -14 -16 -16 -19 -8 -3 10 -6 9 -10
-2 -5 -13 3 -15 43 -14 27 1 49 -2 49 -5 0 -13 -35 -37 -51 -35 -10 2 -15 -4
-14 -19 1 -18 8 -21 43 -21 42 0 69 -15 58 -33 -3 -5 -19 -8 -36 -7 -25 2 -28
0 -19 -11 6 -8 15 -12 19 -9 5 3 11 1 14 -4 4 -5 14 -8 24 -6 9 1 29 -9 45
-23 15 -14 27 -22 27 -17 0 5 15 -6 34 -24 22 -21 36 -29 41 -21 5 8 11 7 23
-2 14 -11 14 -9 -1 15 -10 15 -14 27 -10 27 4 0 -6 13 -21 29 -15 16 -28 32
-27 35 3 17 0 19 -10 9 -6 -6 -18 -9 -26 -6 -11 4 -11 8 -3 13 8 5 7 9 -4 13
-9 4 -15 3 -15 -1 3 -21 -4 -20 -36 4 -30 23 -33 29 -23 43 9 12 7 11 -9 -2
-15 -13 -23 -15 -28 -7 -8 12 43 72 55 65 4 -2 17 7 30 20 13 13 26 22 30 20
4 -3 14 3 21 13 13 16 13 16 -5 2 -18 -14 -19 -13 -13 3 4 11 3 16 -3 12 -14
-9 -12 8 3 25 10 12 9 12 -5 1 -10 -7 -18 -10 -18 -6 0 4 -7 2 -15 -5 -8 -7
-15 -9 -15 -5 0 4 -7 2 -15 -5 -8 -7 -15 -8 -15 -2 0 11 22 31 32 29 3 -1 10
2 15 7 5 6 2 6 -6 1 -11 -6 -13 -4 -8 11 6 14 2 13 -14 -6 -15 -18 -19 -20
-15 -7 4 12 2 16 -6 11 -8 -5 -9 -2 -5 10 4 10 3 15 -3 11 -13 -8 -13 1 1 27
9 16 8 19 -2 13 -9 -6 -11 -3 -6 11 5 14 2 12 -13 -6 -11 -14 -20 -29 -19 -35
0 -5 6 -1 14 9 8 11 15 16 15 10 0 -5 -7 -17 -14 -27 -12 -16 -14 -16 -20 -2
-3 9 -1 26 5 37 9 16 8 19 -2 13 -9 -6 -10 -3 -6 8 16 40 17 50 3 27 -9 -14
-15 -19 -16 -11 0 11 -4 9 -15 -5 -21 -27 -18 -10 5 36 25 50 25 67 0 20 -11
-19 -20 -28 -20 -20 0 8 -10 -2 -21 -23 -11 -22 -23 -37 -25 -34 -3 3 6 27 20
54 14 26 25 41 26 33 0 -8 8 -2 16 13 9 16 13 31 11 34 -3 2 -8 -5 -12 -18z
m-59 -77 c-9 -17 -13 -38 -9 -48 5 -13 11 -9 29 21 l23 38 -3 -37 c-3 -36 -16
-63 -16 -35 -1 10 -5 8 -15 -5 -11 -14 -15 -16 -15 -5 -1 8 -6 4 -14 -10 -11
-20 -14 -21 -19 -7 -6 15 42 130 51 122 2 -2 -4 -18 -12 -34z m81 -64 c2 -18
4 -41 5 -50 1 -9 6 -14 10 -12 4 3 5 -17 3 -43 -3 -41 -2 -46 9 -30 13 17 14
48 1 78 -3 10 -2 20 4 24 11 6 15 -7 12 -34 -2 -7 2 -10 7 -7 5 3 8 -7 6 -24
-2 -16 2 -32 8 -36 6 -4 8 -3 5 3 -4 6 1 19 9 29 12 15 15 16 11 2 -6 -17 16
-19 30 -3 4 4 2 5 -4 1 -15 -8 -18 10 -4 18 5 3 12 -2 15 -11 7 -16 -32 -68
-43 -58 -2 3 -21 -9 -40 -27 l-36 -33 29 33 c24 26 27 35 17 45 -10 9 -12 9
-9 -2 2 -9 -7 -15 -24 -16 -16 -1 -28 2 -28 7 0 5 -6 6 -12 2 -7 -4 -6 1 3 12
18 22 24 68 7 58 -7 -4 -8 -2 -4 4 4 6 0 25 -9 42 -12 23 -13 35 -4 51 13 26
21 19 26 -23z m17 -229 c3 -3 -5 -5 -19 -5 -13 0 -22 3 -19 7 4 8 30 6 38 -2z
m106 -64 c0 4 7 2 15 -5 12 -10 18 -10 33 1 9 7 14 9 9 4 -4 -5 5 -22 20 -38
16 -17 22 -27 16 -23 -15 9 -18 -10 -3 -19 6 -4 7 -11 4 -17 -4 -5 -21 4 -40
23 -19 18 -34 29 -34 24 0 -5 -12 3 -27 17 -16 14 -36 24 -45 23 -10 -2 -21 2
-25 7 -3 6 -1 8 4 5 6 -4 16 0 23 8 11 14 15 14 31 -1 11 -10 19 -14 19 -9z"/>
<path d="M1276 1845 c-9 -26 -7 -32 5 -12 6 10 9 21 6 23 -2 3 -7 -2 -11 -11z"/>
<path d="M1366 1843 c-6 -14 -5 -15 5 -6 7 7 10 15 7 18 -3 3 -9 -2 -12 -12z"/>
<path d="M1467 1705 c3 -8 9 -12 14 -9 12 7 11 11 -5 17 -10 4 -13 1 -9 -8z"/>
<path d="M1464 1548 c-4 -7 -3 -10 1 -5 5 4 21 -5 37 -20 15 -15 28 -23 28
-18 0 5 17 -7 37 -26 21 -18 28 -22 15 -8 -26 30 -29 47 -4 28 14 -11 14 -10
-2 8 -10 13 -23 20 -28 17 -5 -3 -15 0 -23 6 -8 7 -15 9 -15 5 0 -5 -9 0 -19
9 -15 14 -21 15 -27 4z"/>
<path d="M1445 1909 c-4 -6 -5 -12 -2 -15 2 -3 7 2 10 11 7 17 1 20 -8 4z"/>
<path d="M1459 1849 c-9 -17 -8 -20 2 -14 9 6 10 3 5 -11 -4 -10 -3 -15 1 -10
7 7 13 56 6 56 -1 0 -7 -10 -14 -21z"/>
<path d="M1780 1686 c0 -2 8 -10 18 -17 15 -13 16 -12 3 4 -13 16 -21 21 -21
13z"/>
<path d="M3250 1600 c-9 -6 -10 -10 -3 -10 6 0 15 5 18 10 8 12 4 12 -15 0z"/>
<path d="M1635 1573 c2 -10 4 -20 5 -23 1 -3 2 -8 2 -11 -1 -3 13 -19 31 -35
18 -17 24 -19 13 -6 -11 12 -16 22 -11 22 4 0 2 6 -4 13 -6 8 -9 16 -6 19 3 3
-4 13 -14 22 -19 17 -19 17 -16 -1z"/>
<path d="M3170 1579 c0 -4 7 -10 16 -13 22 -8 26 -8 20 3 -4 5 0 11 6 14 7 2
1 4 -14 3 -16 0 -28 -4 -28 -7z"/>
<path d="M3298 1573 c7 -3 16 -2 19 1 4 3 -2 6 -13 5 -11 0 -14 -3 -6 -6z"/>
<path d="M3258 1563 c7 -3 16 -2 19 1 4 3 -2 6 -13 5 -11 0 -14 -3 -6 -6z"/>
<path d="M3215 1550 c-3 -6 1 -7 9 -4 18 7 21 14 7 14 -6 0 -13 -4 -16 -10z"/>
<path d="M3105 1510 c3 -5 14 -10 23 -10 15 0 15 2 2 10 -20 13 -33 13 -25 0z"/>
<path d="M3168 1512 c11 -7 8 -11 -13 -16 -15 -4 -35 -4 -45 -1 -10 3 -21 2
-24 -4 -6 -9 84 -45 92 -36 3 3 -1 5 -9 6 -8 0 -6 4 6 10 15 7 12 8 -15 4 -34
-5 -34 -5 10 14 25 11 40 20 33 20 -6 1 -20 4 -30 7 -13 4 -15 3 -5 -4z"/>
<path d="M3074 1466 c11 -9 24 -16 30 -16 12 0 7 5 -24 19 -24 11 -24 11 -6
-3z"/>
<path d="M1990 1466 c0 -2 8 -10 18 -17 15 -13 16 -12 3 4 -13 16 -21 21 -21
13z"/>
<path d="M3128 1443 c7 -3 16 -2 19 1 4 3 -2 6 -13 5 -11 0 -14 -3 -6 -6z"/>
<path d="M2990 1434 c0 -2 12 -9 27 -15 26 -10 62 -4 49 8 -8 8 -76 14 -76 7z"/>
<path d="M1566 1400 c5 -8 9 -18 9 -22 0 -3 3 -9 7 -13 3 -4 5 0 4 9 -1 9 -8
22 -16 29 -10 10 -11 9 -4 -3z"/>
<path d="M3098 1393 c7 -3 16 -2 19 1 4 3 -2 6 -13 5 -11 0 -14 -3 -6 -6z"/>
<path d="M1222 3185 c-17 -37 -3 -55 15 -20 9 16 11 31 6 36 -6 6 -14 -1 -21
-16z"/>
<path d="M1206 3075 c-9 -26 -7 -32 5 -12 6 10 9 21 6 23 -2 3 -7 -2 -11 -11z"/>
<path d="M1120 2934 c-13 -44 -25 -108 -27 -144 -7 -150 -10 -585 -3 -609 4
-14 5 78 3 204 -2 127 0 257 5 290 l10 60 2 -45 c2 -38 4 -33 15 41 8 48 21
114 29 146 13 51 14 66 3 98 l-13 38 -24 -79z m20 -77 c-11 -45 -20 -93 -21
-107 -1 -15 -5 -8 -10 20 -8 36 -5 62 12 129 18 67 24 79 31 62 5 -13 0 -53
-12 -104z"/>
<path d="M1141 2934 c0 -11 3 -14 6 -6 3 7 2 16 -1 19 -3 4 -6 -2 -5 -13z"/>
<path d="M1121 2866 c-6 -25 -11 -53 -10 -63 0 -10 7 9 15 41 8 33 13 61 10
63 -2 2 -9 -16 -15 -41z"/>
<path d="M1121 2134 c0 -11 3 -14 6 -6 3 7 2 16 -1 19 -3 4 -6 -2 -5 -13z"/>
<path d="M1111 2094 c0 -11 3 -14 6 -6 3 7 2 16 -1 19 -3 4 -6 -2 -5 -13z"/>
<path d="M1139 2075 c3 -16 5 -43 4 -58 0 -19 3 -24 8 -15 7 10 9 10 9 -2 1
-12 3 -12 11 2 6 12 6 32 -2 65 -10 36 -14 43 -19 27 -6 -15 -8 -16 -12 -4 -3
8 -2 2 1 -15z m29 -55 c0 -9 -3 -7 -8 5 -5 11 -8 29 -8 40 0 16 2 15 8 -5 4
-14 8 -32 8 -40z"/>
<path d="M1479 1457 c35 -37 59 -53 28 -19 -8 9 -16 22 -16 27 -1 6 -4 10 -8
10 -5 0 -15 4 -23 9 -8 5 1 -7 19 -27z"/>
<path d="M3085 1350 c-13 -5 -14 -9 -5 -9 8 0 24 4 35 9 13 5 14 9 5 9 -8 0
-24 -4 -35 -9z"/>
<path d="M3005 1329 c-16 -5 -43 -7 -60 -4 l-30 5 27 -11 c20 -8 39 -7 75 4
26 8 41 15 33 15 -8 0 -28 -4 -45 -9z"/>
<path d="M2885 1310 c11 -5 29 -8 40 -8 16 0 15 2 -5 8 -34 11 -60 11 -35 0z"/>
<path d="M1840 1210 c8 -5 20 -10 25 -10 6 0 3 5 -5 10 -8 5 -19 10 -25 10 -5
0 -3 -5 5 -10z"/>
<path d="M2948 1243 c7 -3 16 -2 19 1 4 3 -2 6 -13 5 -11 0 -14 -3 -6 -6z"/>
<path d="M2858 1223 c7 -3 16 -2 19 1 4 3 -2 6 -13 5 -11 0 -14 -3 -6 -6z"/>
<path d="M2798 1213 c6 -2 18 -2 25 0 6 3 1 5 -13 5 -14 0 -19 -2 -12 -5z"/>
<path d="M1930 1170 c13 -9 13 -10 0 -10 -38 -2 50 -33 99 -35 l56 -3 -80 29
c-87 31 -98 34 -75 19z m60 -25 c19 -7 28 -14 20 -14 -8 0 -28 6 -45 14 -39
17 -21 18 25 0z"/>
<path d="M2140 1120 c14 -4 36 -8 50 -8 22 0 22 1 -5 8 -16 4 -39 8 -50 8 -16
0 -15 -2 5 -8z"/>
<path d="M1047 2680 c-4 -30 -6 -75 -6 -100 1 -27 5 -9 10 45 10 99 6 142 -4
55z"/>
<path d="M1043 2395 c0 -33 2 -45 4 -27 2 18 2 45 0 60 -2 15 -4 0 -4 -33z"/>
<path d="M1623 1345 c0 -8 4 -12 9 -9 5 3 6 10 3 15 -9 13 -12 11 -12 -6z"/>
<path d="M3199 1301 c11 -7 9 -10 -8 -16 -12 -3 -18 -11 -15 -17 5 -7 1 -9 -9
-5 -22 8 -83 -13 -67 -23 8 -5 -10 -16 -46 -29 -54 -19 -50 -21 16 -5 20 4 22
3 10 -5 -13 -10 -13 -11 0 -11 12 0 12 -2 2 -8 -8 -6 -2 -9 17 -9 31 0 33 17
3 17 -9 0 18 17 61 38 44 20 75 40 71 45 -11 11 -26 9 -19 -3 4 -6 -1 -7 -11
-3 -14 5 -13 8 6 18 20 10 20 13 5 18 -24 10 -33 8 -16 -2z m-30 -61 c-19 -10
-45 -20 -59 -24 -21 -5 -20 -3 5 9 24 11 26 14 10 15 -20 1 -20 2 0 9 10 4 32
8 48 8 l29 0 -33 -17z"/>
<path d="M3000 1219 c-14 -5 -73 -20 -130 -33 -58 -14 -96 -25 -85 -25 23 -1
207 43 245 58 31 12 4 13 -30 0z"/>
<path d="M2723 1153 c9 -2 23 -2 30 0 6 3 -1 5 -18 5 -16 0 -22 -2 -12 -5z"/>
<path d="M2648 1143 c12 -2 30 -2 40 0 9 3 -1 5 -23 4 -22 0 -30 -2 -17 -4z"/>
<path d="M2888 1113 c7 -3 16 -2 19 1 4 3 -2 6 -13 5 -11 0 -14 -3 -6 -6z"/>
<path d="M2775 1095 c-36 -8 -48 -13 -30 -13 17 0 53 6 80 13 64 16 28 16 -50
0z"/>
<path d="M2648 1073 c12 -2 32 -2 45 0 12 2 2 4 -23 4 -25 0 -35 -2 -22 -4z"/>
<path d="M2658 1023 c12 -2 30 -2 40 0 9 3 -1 5 -23 4 -22 0 -30 -2 -17 -4z"/>
<path d="M2448 1013 c34 -2 88 -2 120 0 31 2 3 3 -63 3 -66 0 -92 -1 -57 -3z"/>
</g>
</svg>
